<?xml version="1.0" encoding="utf-8"?>
<!-- Generator: Adobe Illustrator 15.1.0, SVG Export Plug-In  -->
<!DOCTYPE svg PUBLIC "-//W3C//DTD SVG 1.1//EN" "http://www.w3.org/Graphics/SVG/1.1/DTD/svg11.dtd" [
	<!ENTITY ns_flows "http://ns.adobe.com/Flows/1.0/">
]>
<svg version="1.1"
	 xmlns="http://www.w3.org/2000/svg" xmlns:xlink="http://www.w3.org/1999/xlink" xmlns:a="http://ns.adobe.com/AdobeSVGViewerExtensions/3.0/"
	 x="0px" y="0px" width="200px" height="60px" viewBox="-23.858 -7.214 200 60" enable-background="new -23.858 -7.214 200 60"
	 xml:space="preserve">
<defs>
</defs>
<polyline fill="#FFFFFF" points="30.855,44.472 30.228,44.472 30.228,0.002 37.322,0.002 37.322,44.472 30.855,44.472 "/>
<path fill="#FFFFFF" d="M83.886,45.268c-1.799,0-3.538-0.348-5.2-1.036c-1.662-0.687-3.103-1.641-4.309-2.854
	c-1.19-1.197-2.129-2.504-2.805-3.916c-0.887-1.83-1.33-3.783-1.329-5.836c-0.001-2.37,0.605-4.645,1.808-6.783
	c1.206-2.153,2.906-3.85,5.063-5.054c2.147-1.2,4.416-1.811,6.771-1.811c2.37,0,4.64,0.607,6.772,1.802
	c2.141,1.197,3.824,2.875,5.01,4.999c1.182,2.117,1.777,4.426,1.776,6.888c0,1.745-0.288,3.396-0.868,4.937
	c-0.576,1.533-1.365,2.88-2.37,4.027c-0.987,1.129-2.025,2.02-3.12,2.662c-1.07,0.629-2.229,1.116-3.466,1.459
	C86.377,45.094,85.133,45.268,83.886,45.268 M83.886,38.643c1.895-0.008,3.372-0.666,4.61-2.045c1.242-1.4,1.848-2.998,1.852-4.91
	c-0.001-1.273-0.303-2.463-0.914-3.601c-0.613-1.135-1.417-1.985-2.441-2.593c-1.045-0.617-2.063-0.91-3.085-0.911
	c-1.009,0-2.046,0.292-3.14,0.906c-1.071,0.606-1.895,1.437-2.512,2.532c-0.609,1.094-0.916,2.295-0.916,3.644
	c0,1.323,0.301,2.51,0.908,3.607c0.61,1.097,1.41,1.915,2.436,2.496C81.725,38.358,82.778,38.643,83.886,38.643"/>
<path fill="#FFFFFF" d="M54.012,45.268c-1.801,0-3.539-0.349-5.202-1.036c-1.662-0.687-3.104-1.641-4.309-2.854
	c-1.19-1.197-2.129-2.504-2.804-3.916c-0.888-1.83-1.33-3.783-1.33-5.836c0-2.37,0.608-4.645,1.809-6.783
	c1.204-2.153,2.905-3.85,5.064-5.054c2.145-1.201,4.414-1.811,6.771-1.811c2.365,0,4.637,0.607,6.771,1.802
	c2.14,1.197,3.822,2.875,5.01,4.999c1.182,2.117,1.777,4.426,1.776,6.888c0,1.745-0.288,3.396-0.868,4.937
	c-0.574,1.533-1.366,2.88-2.371,4.027c-0.988,1.129-2.025,2.02-3.118,2.662c-1.072,0.629-2.229,1.115-3.468,1.459
	C56.503,45.094,55.257,45.268,54.012,45.268 M54.012,38.643c1.893-0.008,3.373-0.667,4.61-2.045c1.24-1.4,1.844-2.998,1.849-4.91
	c0-1.273-0.302-2.463-0.912-3.601c-0.613-1.135-1.418-1.985-2.441-2.595c-1.046-0.616-2.063-0.909-3.086-0.909
	c-1.007,0-2.045,0.291-3.139,0.905c-1.07,0.607-1.896,1.438-2.511,2.533c-0.612,1.094-0.917,2.295-0.917,3.644
	c0,1.323,0.301,2.51,0.906,3.606c0.611,1.098,1.413,1.915,2.437,2.496C51.848,38.358,52.904,38.643,54.012,38.643"/>
<path fill="#FFFFFF" d="M101.188,44.473h-0.628V19.214h6.625v1.13c0.482-0.429,1.045-0.796,1.68-1.099
	c1.184-0.57,2.533-0.848,4.03-0.848c1.785-0.001,3.41,0.422,4.839,1.276c0.856,0.527,1.638,1.246,2.348,2.141
	c0.414-0.502,0.811-0.911,1.197-1.23c0.809-0.669,1.771-1.199,2.877-1.591c1.123-0.401,2.398-0.595,3.816-0.595
	c1.493,0,2.827,0.216,3.995,0.665c1.139,0.436,2.146,1.021,3.014,1.749c0.847,0.712,1.52,1.452,2.008,2.231
	c0.484,0.774,0.847,1.676,1.098,2.697c0.254,1.051,0.371,2.457,0.371,4.261v14.473h-7.117V30.709c0.004-2.19-0.42-3.67-1.096-4.461
	c-0.728-0.841-1.597-1.238-2.809-1.247c-0.913,0.003-1.704,0.251-2.444,0.767c-0.746,0.525-1.226,1.146-1.498,1.909
	c-0.268,0.743-0.441,2.252-0.437,4.408v12.388h-7.097V30.709c0.002-2.035-0.44-3.462-1.21-4.346
	c-0.818-0.934-1.724-1.354-2.887-1.362c-0.821,0-1.466,0.14-1.955,0.384c-0.501,0.252-0.899,0.612-1.224,1.111
	c-0.328,0.507-0.589,1.166-0.763,1.983c-0.169,0.798-0.267,2.013-0.265,3.605v12.388H101.188"/>
<path fill="#FFFFFF" d="M25.428,24.777c-1.186-2.123-2.867-3.8-5.012-4.998c-2.133-1.195-4.402-1.802-6.771-1.802
	c-2.274,0-4.465,0.575-6.547,1.693V0H0v31.666h0.003c0.006,2.036,0.448,3.978,1.329,5.796c0.675,1.412,1.613,2.719,2.803,3.916
	c1.207,1.214,2.648,2.168,4.309,2.854c1.664,0.688,3.403,1.036,5.201,1.036c1.248,0,2.491-0.174,3.733-0.518
	c1.239-0.344,2.396-0.83,3.468-1.459c1.094-0.643,2.132-1.533,3.119-2.662c1.008-1.148,1.795-2.494,2.371-4.027
	c0.578-1.541,0.867-3.191,0.867-4.937C27.204,29.204,26.608,26.895,25.428,24.777 M18.256,36.598
	c-1.238,1.378-2.717,2.037-4.611,2.045c-1.105,0-2.162-0.285-3.202-0.875c-1.023-0.581-1.825-1.398-2.435-2.496
	c-0.605-1.097-0.91-2.283-0.91-3.606c0-1.349,0.307-2.55,0.92-3.644c0.613-1.096,1.438-1.926,2.512-2.533
	c1.092-0.614,2.129-0.905,3.137-0.905c1.023,0,2.041,0.293,3.085,0.909c1.025,0.609,1.829,1.46,2.442,2.595
	c0.612,1.138,0.912,2.327,0.914,3.601C20.102,33.6,19.498,35.198,18.256,36.598z"/>
<path fill="#FFFFFF" d="M151.229,40.506c0-2.194-1.779-3.975-3.975-3.975c-2.194,0-3.975,1.78-3.975,3.975
	c0,2.196,1.78,3.977,3.975,3.977C149.45,44.483,151.229,42.703,151.229,40.506"/>
</svg>
